<svg width="45" height="45" viewBox="0 0 45 45" fill="none" xmlns="http://www.w3.org/2000/svg">
<circle cx="22.5" cy="22.5" r="22.5" fill="#1680C4"/>
<path d="M30 15.9101C29.0832 14.984 27.9912 14.2497 26.7876 13.7501C25.5841 13.2505 24.2931 12.9955 22.99 13.0001C17.53 13.0001 13.08 17.4501 13.08 22.9101C13.08 24.6601 13.54 26.3601 14.4 27.8601L13 33.0001L18.25 31.6201C19.7 32.4101 21.33 32.8301 22.99 32.8301C28.45 32.8301 32.9 28.3801 32.9 22.9201C32.9 20.2701 31.87 17.7801 30 15.9101V15.9101ZM22.99 31.1501C21.51 31.1501 20.06 30.7501 18.79 30.0001L18.49 29.8201L15.37 30.6401L16.2 27.6001L16 27.2901C15.1777 25.977 14.7411 24.4593 14.74 22.9101C14.74 18.3701 18.44 14.6701 22.98 14.6701C25.18 14.6701 27.25 15.5301 28.8 17.0901C29.5675 17.854 30.1757 18.7627 30.5894 19.7635C31.0031 20.7642 31.214 21.8372 31.21 22.9201C31.23 27.4601 27.53 31.1501 22.99 31.1501V31.1501ZM27.51 24.9901C27.26 24.8701 26.04 24.2701 25.82 24.1801C25.59 24.1001 25.43 24.0601 25.26 24.3001C25.09 24.5501 24.62 25.1101 24.48 25.2701C24.34 25.4401 24.19 25.4601 23.94 25.3301C23.69 25.2101 22.89 24.9401 21.95 24.1001C21.21 23.4401 20.72 22.6301 20.57 22.3801C20.43 22.1301 20.55 22.0001 20.68 21.8701C20.79 21.7601 20.93 21.5801 21.05 21.4401C21.17 21.3001 21.22 21.1901 21.3 21.0301C21.38 20.8601 21.34 20.7201 21.28 20.6001C21.22 20.4801 20.72 19.2601 20.52 18.7601C20.32 18.2801 20.11 18.3401 19.96 18.3301H19.48C19.31 18.3301 19.05 18.3901 18.82 18.6401C18.6 18.8901 17.96 19.4901 17.96 20.7101C17.96 21.9301 18.85 23.1101 18.97 23.2701C19.09 23.4401 20.72 25.9401 23.2 27.0101C23.79 27.2701 24.25 27.4201 24.61 27.5301C25.2 27.7201 25.74 27.6901 26.17 27.6301C26.65 27.5601 27.64 27.0301 27.84 26.4501C28.05 25.8701 28.05 25.3801 27.98 25.2701C27.91 25.1601 27.76 25.1101 27.51 24.9901V24.9901Z" fill="white"/>
</svg>
