<svg width="45" height="45" viewBox="0 0 45 45" fill="none" xmlns="http://www.w3.org/2000/svg">
<circle cx="22.5" cy="22.5" r="22.5" fill="#1680C4"/>
<path d="M21.89 13.3364C22.1941 13.1335 22.5481 13.0178 22.9134 13.0019C23.2787 12.986 23.6414 13.0706 23.962 13.2464L24.109 13.3364L32.109 18.6694C32.3596 18.8365 32.5693 19.0579 32.7224 19.3173C32.8754 19.5767 32.968 19.8673 32.993 20.1674L33 20.3334V29.7984C33.0002 30.303 32.8096 30.789 32.4665 31.159C32.1234 31.529 31.6532 31.7556 31.15 31.7934L31 31.7984H15C14.4954 31.7986 14.0094 31.608 13.6395 31.2649C13.2695 30.9219 13.0428 30.4516 13.005 29.9484L13 29.7984V20.3334C13 20.0323 13.068 19.7351 13.1989 19.464C13.3298 19.1928 13.5202 18.9547 13.756 18.7674L13.891 18.6694L21.891 13.3364H21.89ZM23 15.0004L15.803 19.7984L23 24.5964L30.197 19.7984L23 15.0004Z" fill="white"/>
</svg>
