<svg width="158" height="60" viewBox="0 0 158 60" fill="none" xmlns="http://www.w3.org/2000/svg">
<g clip-path="url(#clip0_142_216)">
<path d="M71.611 1.1679C70.9716 0.477639 70.1724 0.105957 69.16 0.105957H13.96C12.9476 0.105957 12.0951 0.477639 11.509 1.1679C10.8697 1.85817 10.6032 2.70773 10.7631 3.71658L14.7059 41.4688C14.9191 43.6989 16.7839 46.4599 18.6488 47.6281L38.15 59.0971C39.0558 59.6281 40.3345 59.9467 41.6133 59.9467C42.9453 59.9467 44.1708 59.6281 45.0766 59.0971L64.5778 47.6281C66.4959 46.5661 68.2542 43.6989 68.5206 41.4688L72.4635 3.71658C72.4635 2.81392 72.2504 1.85817 71.611 1.1679ZM55.6264 43.0086C54.028 44.0706 51.8967 43.6458 50.831 42.106L40.8673 27.5042L34.8465 33.5042V40.1414C34.8465 42.0529 33.3013 43.5927 31.3832 43.5927C29.465 43.5927 27.9198 42.0529 27.9198 40.1414V11.3626C27.9198 9.45109 29.465 7.91127 31.3832 7.91127C33.3013 7.91127 34.8465 9.45109 34.8465 11.3626V23.7343L49.7121 8.92012C51.0442 7.59268 53.282 7.59268 54.6141 8.92012C55.9461 10.2475 55.9461 12.4776 54.6141 13.8051L45.8225 22.513C45.8225 22.5661 45.8758 22.5661 45.8758 22.6192L56.5322 38.1768C57.5978 39.7697 57.1716 41.8936 55.6264 43.0086Z" fill="#5D2E8E"/>
<path fill-rule="evenodd" clip-rule="evenodd" d="M157.714 13.8052V37.8583C157.714 41.0972 155.05 43.7521 151.8 43.7521H71.291L71.5041 41.2034H151.8C153.611 41.2034 155.157 39.6636 155.157 37.8583V13.699C155.157 11.8937 153.611 10.3538 151.8 10.3538H74.7543L74.9675 7.80518H151.8C155.05 7.80518 157.714 10.46 157.714 13.8052Z" fill="#5D2E8E"/>
<path fill-rule="evenodd" clip-rule="evenodd" d="M81.4681 19.2739C81.4681 18.9022 81.255 18.7429 80.9353 18.7429H79.8696V16.5659H82.3206C83.4928 16.5659 84.0256 16.8845 84.0256 18.1057V26.6544H85.1978C85.6774 26.6544 86.2635 26.4951 86.5831 26.1234L89.6735 21.8757H92.5507L88.9808 26.7075C88.3414 27.4509 87.9685 27.7164 87.9685 27.7164V27.7695C87.9685 27.7695 88.448 27.9287 88.821 28.7783L90.7391 32.3358C90.9523 32.7075 91.2187 32.8668 91.9113 32.8668H92.6573V34.9907H90.7924C89.5669 34.9907 89.194 34.7783 88.6079 33.7695L86.2102 29.3624C85.8905 28.8845 85.3577 28.8314 84.8781 28.8314H83.8658V35.0438H81.3082L81.4681 19.2739Z" fill="#5D2E8E"/>
<path fill-rule="evenodd" clip-rule="evenodd" d="M95.2679 19.3271C95.2679 18.9554 95.0548 18.7961 94.7351 18.7961H93.6694V16.6191H96.1204C97.2926 16.6191 97.8254 17.097 97.8254 18.2121V23.3625C97.8254 23.9997 97.7721 24.4245 97.7721 24.4245H97.8254C98.3582 23.097 100.063 21.5041 102.674 21.5041C105.764 21.5041 107.15 23.2032 107.15 26.6014V32.2829C107.15 32.6545 107.363 32.8138 107.683 32.8138H108.748V34.9377H106.297C105.125 34.9377 104.592 34.4598 104.592 33.2386V27.1855C104.592 25.3271 104.219 23.8935 102.141 23.8935C100.117 23.8935 98.5181 25.274 97.9853 27.1324C97.8254 27.6634 97.7721 28.3006 97.7721 28.8846V35.0439H95.2146L95.2679 19.3271Z" fill="#5D2E8E"/>
<path d="M115.621 33.2916C117.806 33.2916 119.191 31.0616 119.191 29.15V28.6722H118.552C116.634 28.6722 113.224 28.7253 113.224 31.2208C113.117 32.3359 113.97 33.2916 115.621 33.2916ZM118.552 26.8669H119.085V26.7076C119.085 24.4244 118.232 23.5748 116.154 23.5748C115.515 23.5748 113.97 23.7341 113.97 24.5837V25.327H111.572V23.9996C111.572 21.8226 114.876 21.5571 116.101 21.5571C120.364 21.5571 121.482 23.7872 121.482 26.7076V32.3359C121.482 32.7076 121.696 32.92 122.015 32.92H123.081V35.0439H120.683C119.511 35.0439 119.085 34.5129 119.085 33.504C119.085 33.0262 119.138 32.7607 119.138 32.7607H119.085C119.085 32.7607 118.019 35.3624 114.929 35.3624C112.691 35.3624 110.453 33.9819 110.453 31.3801C110.56 27.1854 116.367 26.8669 118.552 26.8669Z" fill="#5D2E8E"/>
<path fill-rule="evenodd" clip-rule="evenodd" d="M125.319 18.9026H124.146V16.7256H126.597C127.77 16.7256 128.302 17.2035 128.302 18.4247V32.3362C128.302 32.7079 128.516 32.8672 128.835 32.8672H129.901V34.9911H127.45C126.278 34.9911 125.745 34.5132 125.745 33.292V19.4336C125.798 19.4336 125.852 18.9026 125.319 18.9026Z" fill="#5D2E8E"/>
<path fill-rule="evenodd" clip-rule="evenodd" d="M132.778 23.8933H131.073V21.8756H132.832V18.2119H135.283V21.8756H138.426V23.8933H135.336V29.8933C135.336 32.4951 137.147 32.9199 138.053 32.9199C138.426 32.9199 138.693 32.9199 138.693 32.9199V34.9907C138.693 34.9907 138.373 35.0438 137.84 35.0438C136.135 35.0438 132.832 34.5128 132.832 30.1057V23.8933H132.778Z" fill="#5D2E8E"/>
<path fill-rule="evenodd" clip-rule="evenodd" d="M142.795 16.6724H144.394C144.554 16.6724 144.713 16.8317 144.713 16.9909V18.9555C144.713 19.1148 144.554 19.2741 144.394 19.2741H142.795C142.635 19.2741 142.476 19.1148 142.476 18.9555V16.9909C142.476 16.7786 142.582 16.6724 142.795 16.6724Z" fill="#5D2E8E"/>
<path fill-rule="evenodd" clip-rule="evenodd" d="M142.369 24.5839C142.369 24.2123 142.156 24.053 141.836 24.053H140.771V21.876H143.221C144.394 21.876 144.926 22.3539 144.926 23.5751V32.3362C144.926 32.7078 145.14 32.8671 145.459 32.8671H146.525V34.991H144.074C142.902 34.991 142.369 34.5131 142.369 33.2919V24.5839Z" fill="#5D2E8E"/>
<path fill-rule="evenodd" clip-rule="evenodd" d="M6.65365 9.97352L0.227493 11.4446L4.70466 30.47L10.7186 29.1487L6.65365 9.97352Z" fill="#F9A61C"/>
<path d="M8.80952 9.64131L0.0795898 10.5503L2.23168 30.8348L10.9616 29.9258L8.80952 9.64131Z" fill="#F9A61C"/>
</g>
<defs>
<clipPath id="clip0_142_216">
<rect width="157.714" height="60" fill="white"/>
</clipPath>
</defs>
</svg>
