<svg width="45" height="45" viewBox="0 0 45 45" fill="none" xmlns="http://www.w3.org/2000/svg">
<circle cx="22.5" cy="22.5" r="22.5" fill="#1680C4"/>
<path d="M32.92 16C32.15 16.35 31.32 16.58 30.46 16.69C31.34 16.16 32.02 15.32 32.34 14.31C31.51 14.81 30.59 15.16 29.62 15.36C28.83 14.5 27.72 14 26.46 14C24.11 14 22.19 15.92 22.19 18.29C22.19 18.63 22.23 18.96 22.3 19.27C18.74 19.09 15.57 17.38 13.46 14.79C13.09 15.42 12.88 16.16 12.88 16.94C12.88 18.43 13.63 19.75 14.79 20.5C14.08 20.5 13.42 20.3 12.84 20V20.03C12.84 22.11 14.32 23.85 16.28 24.24C15.6507 24.4122 14.9901 24.4362 14.35 24.31C14.6216 25.1625 15.1535 25.9084 15.871 26.4429C16.5885 26.9775 17.4554 27.2737 18.35 27.29C16.8336 28.4904 14.954 29.1393 13.02 29.13C12.68 29.13 12.34 29.11 12 29.07C13.9 30.29 16.16 31 18.58 31C26.46 31 30.79 24.46 30.79 18.79C30.79 18.6 30.79 18.42 30.78 18.23C31.62 17.63 32.34 16.87 32.92 16V16Z" fill="white"/>
</svg>
